<?xml version="1.0" encoding="UTF-8" ?>
<!DOCTYPE svg PUBLIC "-//W3C//DTD SVG 1.1//EN" "http://www.w3.org/Graphics/SVG/1.1/DTD/svg11.dtd">
<svg width="512pt" height="512pt" viewBox="0 0 512 512" version="1.1" xmlns="http://www.w3.org/2000/svg">
<g id="#00000079">
<path fill="#000000" opacity="0.47" d=" M 306.95 3.83 C 318.03 1.00 329.60 1.15 340.94 1.61 C 347.65 2.54 354.54 1.93 361.09 3.91 C 376.75 6.51 392.15 11.33 406.13 18.94 C 411.38 21.65 417.10 23.55 421.87 27.14 C 439.55 40.64 452.03 60.78 456.19 82.63 C 456.99 90.32 457.38 98.40 454.50 105.73 C 451.14 114.66 448.22 123.91 442.99 131.97 C 439.17 137.42 434.19 142.14 428.48 145.56 C 426.90 146.88 425.06 145.57 423.45 145.09 C 428.11 139.89 434.54 136.19 437.83 129.84 C 442.22 120.10 447.43 109.99 446.30 98.95 C 444.22 80.29 433.90 63.33 420.22 50.80 C 408.84 40.62 395.22 33.06 380.78 28.21 C 374.26 26.71 367.66 25.19 360.99 24.62 C 349.58 24.42 338.13 24.71 326.86 26.67 C 313.77 28.99 300.15 31.39 288.90 38.94 C 275.41 47.75 263.15 58.39 252.09 70.09 C 240.32 81.83 230.39 95.25 220.80 108.79 C 190.66 152.30 169.10 201.66 157.15 253.21 C 153.63 269.79 150.26 286.48 149.17 303.42 C 146.86 315.48 147.58 327.80 147.32 340.00 C 147.08 351.60 147.69 363.22 149.50 374.68 C 150.63 381.63 150.63 388.76 152.46 395.60 C 153.46 399.36 154.25 403.18 154.92 407.02 C 162.55 440.19 176.32 472.47 198.25 498.76 C 204.13 505.58 214.56 502.94 221.50 507.84 C 215.03 510.93 208.04 508.10 201.39 507.37 C 186.66 503.87 172.61 497.51 160.25 488.76 C 146.70 479.67 135.16 468.00 124.17 456.03 C 121.90 453.52 119.40 451.24 116.73 449.16 C 112.32 445.54 108.12 441.27 106.21 435.77 C 108.28 438.05 110.20 440.47 112.25 442.77 C 114.96 445.87 119.36 446.75 122.03 449.90 C 123.91 452.06 125.46 454.49 127.35 456.66 C 144.70 475.86 164.92 494.02 190.04 502.02 C 195.07 503.74 200.01 506.78 205.55 505.71 C 201.51 503.09 197.36 500.44 194.46 496.51 C 168.89 464.44 154.75 424.53 148.87 384.28 C 146.97 374.99 145.52 365.56 145.43 356.06 C 145.37 346.04 143.23 335.95 145.22 325.98 C 147.17 316.92 145.62 307.56 147.50 298.48 C 148.88 283.90 151.00 269.34 154.94 255.21 C 157.03 247.81 158.33 240.22 160.56 232.85 C 168.29 206.63 177.64 180.74 190.64 156.63 C 198.93 139.27 209.11 122.90 220.09 107.13 C 225.25 99.99 230.21 92.67 236.01 86.03 C 238.27 83.49 240.19 80.67 241.79 77.67 C 246.91 73.18 251.39 68.01 256.26 63.25 C 261.38 57.67 267.49 53.17 273.21 48.24 C 281.76 41.41 290.75 34.87 300.94 30.72 L 301.68 30.46 C 308.90 28.83 316.03 26.85 323.26 25.31 C 333.46 23.97 343.69 22.32 354.01 22.83 C 364.32 22.34 374.56 24.40 384.34 27.51 C 404.96 35.53 424.51 48.56 436.46 67.57 C 440.34 73.72 443.61 80.29 445.83 87.23 C 447.42 92.32 448.19 97.67 448.18 103.00 C 448.15 111.23 444.00 118.59 441.31 126.15 C 439.28 131.98 434.65 136.24 431.21 141.19 C 434.61 139.04 437.88 136.56 440.22 133.23 C 447.14 123.61 451.26 112.24 453.61 100.69 C 455.54 92.70 455.59 84.12 452.73 76.34 C 449.17 62.60 441.62 50.23 432.74 39.29 C 428.51 34.09 423.41 29.46 417.26 26.64 C 409.63 23.10 402.37 18.81 394.66 15.43 C 386.49 11.62 377.67 9.52 368.99 7.24 C 359.52 4.93 349.75 3.65 339.99 4.18 C 333.03 4.58 326.01 3.41 319.10 4.61 C 310.79 6.20 302.20 5.84 294.02 8.14 C 289.38 9.39 284.57 10.14 280.18 12.15 C 279.65 12.37 278.58 12.81 278.05 13.03 C 275.73 13.84 273.38 14.58 271.09 15.45 C 264.94 17.83 258.78 20.21 252.63 22.61 C 246.59 24.75 240.75 27.40 234.78 29.75 C 222.11 34.62 210.68 42.07 199.22 49.22 C 191.06 54.96 182.89 60.73 175.46 67.41 C 167.31 73.87 159.76 81.12 153.14 89.16 C 143.52 97.81 133.46 106.24 126.02 116.95 C 122.98 119.97 120.11 123.17 117.84 126.82 C 114.30 132.60 109.33 137.45 106.70 143.77 C 106.52 144.07 106.16 144.68 105.98 144.98 C 101.05 150.03 98.19 156.56 94.50 162.49 C 87.29 174.13 82.63 187.07 76.63 199.33 C 75.41 201.65 74.38 204.07 73.52 206.55 C 71.49 211.62 70.13 216.91 68.46 222.10 C 67.07 225.92 65.72 229.77 64.91 233.77 C 62.55 244.88 60.34 256.08 59.68 267.45 C 57.46 285.45 57.28 303.95 61.45 321.69 C 66.01 353.36 77.27 383.79 92.09 412.05 C 96.06 419.89 101.09 427.11 105.41 434.75 C 102.11 432.59 100.24 429.02 98.17 425.80 C 82.90 400.71 71.41 373.31 64.18 344.84 C 63.19 341.65 62.37 338.41 61.95 335.11 C 61.01 327.33 58.36 319.85 57.99 311.98 C 57.12 300.35 56.42 288.65 56.86 276.99 C 58.34 267.40 57.80 257.58 60.23 248.14 C 67.06 208.18 85.25 171.11 107.70 137.71 C 118.13 122.45 130.10 108.23 143.71 95.71 C 151.16 89.52 157.26 81.93 164.29 75.29 C 183.33 56.98 205.05 41.28 229.13 30.28 C 248.83 22.39 267.83 12.43 288.62 7.58 C 294.56 5.53 300.80 4.90 306.95 3.83 Z" />
</g>
<g id="#050505c7">
<path fill="#050505" opacity="0.78" d=" M 319.10 4.61 C 326.01 3.41 333.03 4.58 339.99 4.18 C 349.75 3.65 359.52 4.93 368.99 7.24 C 364.52 7.22 359.99 7.41 355.61 6.30 C 351.81 5.37 347.91 4.84 344.00 5.07 C 335.70 5.46 327.38 5.31 319.10 4.61 Z" />
</g>
<g id="#121212ef">
<path fill="#121212" opacity="0.94" d=" M 294.02 8.14 C 302.20 5.84 310.79 6.20 319.10 4.61 C 327.38 5.31 335.70 5.46 344.00 5.07 C 347.91 4.84 351.81 5.37 355.61 6.30 C 359.99 7.41 364.52 7.22 368.99 7.24 C 377.67 9.52 386.49 11.62 394.66 15.43 C 402.37 18.81 409.63 23.10 417.26 26.64 C 423.41 29.46 428.51 34.09 432.74 39.29 C 441.62 50.23 449.17 62.60 452.73 76.34 C 455.59 84.12 455.54 92.70 453.61 100.69 C 452.25 100.57 450.90 100.45 449.56 100.34 C 449.45 98.18 449.38 96.01 449.22 93.86 C 449.96 95.54 450.91 97.13 452.02 98.61 C 454.37 95.58 453.55 91.51 453.67 87.95 C 453.73 82.20 451.07 76.99 449.59 71.56 C 445.17 58.07 436.98 45.99 427.39 35.63 C 422.43 30.35 415.38 28.16 409.28 24.59 C 402.74 20.85 396.04 17.27 388.84 14.96 C 379.41 11.97 369.92 8.67 359.98 7.93 C 354.32 7.44 348.73 6.14 343.02 6.30 C 331.16 6.55 319.24 5.72 307.45 7.45 C 298.09 7.46 289.47 11.60 280.18 12.15 C 284.57 10.14 289.38 9.39 294.02 8.14 Z" />
<path fill="#121212" opacity="0.94" d=" M 234.78 29.75 C 240.75 27.40 246.59 24.75 252.63 22.61 C 249.62 25.08 246.55 27.65 242.77 28.86 C 224.26 35.05 207.41 45.27 191.49 56.39 C 187.00 59.53 182.47 62.74 178.81 66.87 C 178.15 67.48 177.49 68.08 176.83 68.69 C 167.59 73.85 161.46 82.80 153.14 89.16 C 159.76 81.12 167.31 73.87 175.46 67.41 C 182.89 60.73 191.06 54.96 199.22 49.22 C 210.68 42.07 222.11 34.62 234.78 29.75 Z" />
<path fill="#121212" opacity="0.94" d=" M 320.43 24.69 C 331.19 22.97 342.07 21.30 353.00 22.05 C 359.78 21.69 366.67 21.24 373.23 23.40 C 384.83 25.22 395.56 30.14 405.98 35.35 C 419.01 44.25 431.59 54.50 439.84 68.18 C 443.84 74.20 445.93 81.17 448.16 87.97 C 447.58 87.79 446.41 87.41 445.83 87.23 C 443.61 80.29 440.34 73.72 436.46 67.57 C 424.51 48.56 404.96 35.53 384.34 27.51 C 374.56 24.40 364.32 22.34 354.01 22.83 C 343.69 22.32 333.46 23.97 323.26 25.31 C 316.03 26.85 308.90 28.83 301.68 30.46 C 307.44 27.17 314.17 26.55 320.43 24.69 Z" />
<path fill="#121212" opacity="0.94" d=" M 64.91 233.77 C 65.72 229.77 67.07 225.92 68.46 222.10 C 66.57 236.48 61.33 250.38 61.27 264.99 C 61.35 272.08 58.90 278.90 59.10 285.99 C 59.22 297.45 59.71 309.08 62.90 320.16 C 64.40 325.53 64.42 331.17 65.79 336.57 C 68.03 344.32 69.36 352.33 72.41 359.84 C 76.67 370.76 78.94 382.77 86.02 392.36 C 86.94 398.90 91.27 404.20 94.19 409.94 C 98.49 418.16 103.39 426.02 107.86 434.13 C 109.19 436.56 111.84 437.69 114.15 438.97 C 113.99 440.38 113.77 441.80 113.84 443.23 C 116.09 444.44 118.56 445.18 120.92 446.16 C 125.25 451.14 129.15 456.50 133.84 461.17 C 147.61 475.08 163.01 487.82 180.91 496.04 C 184.27 497.60 187.58 499.29 190.67 501.34 L 190.04 502.02 C 164.92 494.02 144.70 475.86 127.35 456.66 C 125.46 454.49 123.91 452.06 122.03 449.90 C 119.36 446.75 114.96 445.87 112.25 442.77 C 110.20 440.47 108.28 438.05 106.21 435.77 C 106.01 435.52 105.61 435.00 105.41 434.75 C 101.09 427.11 96.06 419.89 92.09 412.05 C 77.27 383.79 66.01 353.36 61.45 321.69 C 57.28 303.95 57.46 285.45 59.68 267.45 C 60.34 256.08 62.55 244.88 64.91 233.77 Z" />
</g>
<g id="#888888ff">
<path fill="#888888" opacity="1.00" d=" M 307.45 7.45 C 319.24 5.72 331.16 6.55 343.02 6.30 C 348.73 6.14 354.32 7.44 359.98 7.93 C 369.92 8.67 379.41 11.97 388.84 14.96 C 396.04 17.27 402.74 20.85 409.28 24.59 C 415.38 28.16 422.43 30.35 427.39 35.63 C 436.98 45.99 445.17 58.07 449.59 71.56 C 451.07 76.99 453.73 82.20 453.67 87.95 C 453.55 91.51 454.37 95.58 452.02 98.61 C 450.91 97.13 449.96 95.54 449.22 93.86 C 448.90 91.89 448.62 89.91 448.16 87.97 C 445.93 81.17 443.84 74.20 439.84 68.18 C 431.59 54.50 419.01 44.25 405.98 35.35 C 405.31 34.53 404.65 33.70 403.99 32.88 C 411.18 35.90 416.87 41.34 422.93 46.07 C 432.71 54.52 441.15 64.88 446.04 76.93 C 447.69 82.42 449.63 87.81 451.81 93.10 C 452.23 87.52 451.80 81.86 449.59 76.68 C 444.98 60.84 436.17 46.15 423.98 35.00 C 421.60 32.79 418.70 31.28 415.77 29.94 C 409.74 27.22 404.31 23.34 398.24 20.70 C 387.51 15.91 376.15 12.57 364.62 10.38 C 359.18 9.32 353.58 9.67 348.14 8.63 C 336.49 6.53 324.66 8.20 312.94 8.46 C 303.63 8.65 294.77 11.79 285.74 13.67 C 276.65 16.22 267.67 19.21 258.82 22.50 C 253.09 24.40 248.77 28.96 243.07 30.91 C 223.30 38.00 204.67 48.23 187.97 60.95 C 185.09 63.19 181.98 65.08 178.81 66.87 C 182.47 62.74 187.00 59.53 191.49 56.39 C 207.41 45.27 224.26 35.05 242.77 28.86 C 246.55 27.65 249.62 25.08 252.63 22.61 C 258.78 20.21 264.94 17.83 271.09 15.45 C 273.44 14.74 275.80 14.04 278.05 13.03 C 278.58 12.81 279.65 12.37 280.18 12.15 C 289.47 11.60 298.09 7.46 307.45 7.45 Z" />
</g>
<g id="#ffffffff">
<path fill="#ffffff" opacity="1.00" d=" M 285.74 13.67 C 294.77 11.79 303.63 8.65 312.94 8.46 C 324.66 8.20 336.49 6.53 348.14 8.63 C 353.58 9.67 359.18 9.32 364.62 10.38 C 376.15 12.57 387.51 15.91 398.24 20.70 C 404.31 23.34 409.74 27.22 415.77 29.94 C 418.70 31.28 421.60 32.79 423.98 35.00 C 436.17 46.15 444.98 60.84 449.59 76.68 C 449.38 78.15 449.16 79.62 448.92 81.09 C 447.93 79.72 446.94 78.35 446.04 76.93 C 441.15 64.88 432.71 54.52 422.93 46.07 C 416.87 41.34 411.18 35.90 403.99 32.88 C 403.00 32.26 402.00 31.63 401.01 31.02 C 395.00 26.01 387.27 24.20 379.84 22.48 C 374.92 21.45 370.14 19.57 365.06 19.45 C 358.01 19.26 351.02 18.04 343.96 18.25 C 334.88 18.16 326.20 21.17 317.32 22.60 C 305.31 26.01 292.01 28.60 283.07 38.07 C 282.80 38.30 282.26 38.75 281.99 38.97 C 278.87 40.81 275.71 42.63 272.89 44.92 C 249.25 63.60 229.45 86.73 212.54 111.57 C 179.53 159.84 157.18 215.17 146.25 272.57 C 141.55 270.73 139.67 265.86 136.92 262.06 C 129.51 251.91 121.47 242.25 113.20 232.80 C 105.72 224.57 97.19 217.41 88.63 210.35 C 86.07 208.22 82.98 206.93 79.84 205.92 C 79.38 204.92 78.96 203.91 78.57 202.89 C 86.15 183.65 95.39 165.02 106.65 147.66 C 108.70 144.57 110.38 141.27 112.14 138.02 C 114.08 135.38 116.03 132.75 117.94 130.09 C 127.91 118.08 136.66 104.83 148.99 95.02 C 156.57 89.33 162.76 82.11 169.85 75.87 C 172.37 73.67 174.67 71.23 176.83 68.69 C 177.49 68.08 178.15 67.48 178.81 66.87 C 181.98 65.08 185.09 63.19 187.97 60.95 C 204.67 48.23 223.30 38.00 243.07 30.91 C 248.77 28.96 253.09 24.40 258.82 22.50 C 267.67 19.21 276.65 16.22 285.74 13.67 Z" />
</g>
<g id="#232323cc">
<path fill="#232323" opacity="0.80" d=" M 271.09 15.45 C 273.38 14.58 275.73 13.84 278.05 13.03 C 275.80 14.04 273.44 14.74 271.09 15.45 Z" />
</g>
<g id="#b9b9b9ff">
<path fill="#b9b9b9" opacity="1.00" d=" M 317.32 22.60 C 326.20 21.17 334.88 18.16 343.96 18.25 C 351.02 18.04 358.01 19.26 365.06 19.45 C 370.14 19.57 374.92 21.45 379.84 22.48 C 387.27 24.20 395.00 26.01 401.01 31.02 C 389.54 26.09 377.51 22.20 365.06 20.85 C 355.90 20.78 346.70 19.52 337.57 20.71 C 329.44 21.94 321.20 22.72 313.31 25.11 C 307.37 26.61 301.38 28.11 295.91 30.93 C 291.49 33.06 287.48 35.92 283.07 38.07 C 292.01 28.60 305.31 26.01 317.32 22.60 Z" />
</g>
<g id="#636363f7">
<path fill="#636363" opacity="0.97" d=" M 337.57 20.71 C 346.70 19.52 355.90 20.78 365.06 20.85 C 377.51 22.20 389.54 26.09 401.01 31.02 C 402.00 31.63 403.00 32.26 403.99 32.88 C 404.65 33.70 405.31 34.53 405.98 35.35 C 395.56 30.14 384.83 25.22 373.23 23.40 C 366.67 21.24 359.78 21.69 353.00 22.05 C 342.07 21.30 331.19 22.97 320.43 24.69 C 314.17 26.55 307.44 27.17 301.68 30.46 L 300.94 30.72 C 299.26 30.82 297.58 30.84 295.91 30.93 C 301.38 28.11 307.37 26.61 313.31 25.11 C 321.20 22.72 329.44 21.94 337.57 20.71 Z" />
</g>
<g id="#404040e4">
<path fill="#404040" opacity="0.89" d=" M 283.07 38.07 C 287.48 35.92 291.49 33.06 295.91 30.93 C 297.58 30.84 299.26 30.82 300.94 30.72 C 290.75 34.87 281.76 41.41 273.21 48.24 C 267.49 53.17 261.38 57.67 256.26 63.25 C 251.39 68.01 246.91 73.18 241.79 77.67 L 241.09 78.28 C 242.81 75.08 245.06 72.20 247.73 69.73 C 253.88 63.89 259.50 57.48 266.18 52.22 C 271.40 47.74 277.20 43.94 281.99 38.97 C 282.26 38.75 282.80 38.30 283.07 38.07 Z" />
</g>
<g id="#818383ff">
<path fill="#818383" opacity="1.00" d=" M 272.89 44.92 C 275.71 42.63 278.87 40.81 281.99 38.97 C 277.20 43.94 271.40 47.74 266.18 52.22 C 259.50 57.48 253.88 63.89 247.73 69.73 C 245.06 72.20 242.81 75.08 241.09 78.28 C 233.48 86.05 226.66 94.60 220.55 103.59 C 211.21 116.14 203.10 129.54 195.18 143.01 C 192.02 148.71 189.38 154.68 186.26 160.40 C 180.98 170.08 176.92 180.33 172.42 190.37 C 164.88 210.33 157.58 230.49 153.04 251.38 C 150.48 262.01 148.48 272.76 146.59 283.53 C 145.73 292.39 143.78 301.13 143.62 310.05 C 143.59 316.06 142.36 321.99 142.43 328.00 C 142.47 336.01 142.44 344.01 142.72 352.01 C 143.73 364.68 143.69 377.53 146.75 389.95 C 152.94 429.25 167.69 467.77 192.68 499.04 C 192.01 499.81 191.34 500.57 190.67 501.34 C 187.58 499.29 184.27 497.60 180.91 496.04 C 163.01 487.82 147.61 475.08 133.84 461.17 C 129.15 456.50 125.25 451.14 120.92 446.16 C 110.96 430.71 97.39 417.28 90.92 399.78 C 94.51 404.38 97.52 409.37 100.61 414.30 C 107.54 424.66 114.56 434.97 122.03 444.95 C 138.06 465.74 158.39 483.55 182.13 494.99 C 184.17 496.00 186.40 496.52 188.64 496.90 C 181.07 486.73 174.34 475.95 168.22 464.85 C 157.96 444.33 150.34 422.45 146.25 399.86 C 143.52 389.91 143.09 379.57 141.91 369.37 C 139.72 352.98 140.74 336.44 140.48 319.97 C 140.38 312.23 142.51 304.69 142.62 296.97 C 143.54 288.80 144.81 280.66 146.25 272.57 C 157.18 215.17 179.53 159.84 212.54 111.57 C 229.45 86.73 249.25 63.60 272.89 44.92 Z" />
</g>
<g id="#a1a1a1f1">
<path fill="#a1a1a1" opacity="0.95" d=" M 153.14 89.16 C 161.46 82.80 167.59 73.85 176.83 68.69 C 174.67 71.23 172.37 73.67 169.85 75.87 C 162.76 82.11 156.57 89.33 148.99 95.02 C 136.66 104.83 127.91 118.08 117.94 130.09 C 120.40 125.57 123.26 121.29 126.02 116.95 C 133.46 106.24 143.52 97.81 153.14 89.16 Z" />
</g>
<g id="#bfbfbfff">
<path fill="#bfbfbf" opacity="1.00" d=" M 446.04 76.93 C 446.94 78.35 447.93 79.72 448.92 81.09 C 449.16 79.62 449.38 78.15 449.59 76.68 C 451.80 81.86 452.23 87.52 451.81 93.10 C 449.63 87.81 447.69 82.42 446.04 76.93 Z" />
</g>
<g id="#070707ed">
<path fill="#070707" opacity="0.93" d=" M 241.09 78.28 L 241.79 77.67 C 240.19 80.67 238.27 83.49 236.01 86.03 C 230.21 92.67 225.25 99.99 220.09 107.13 C 209.11 122.90 198.93 139.27 190.64 156.63 C 177.64 180.74 168.29 206.63 160.56 232.85 C 158.33 240.22 157.03 247.81 154.94 255.21 C 151.00 269.34 148.88 283.90 147.50 298.48 C 145.62 307.56 147.17 316.92 145.22 325.98 C 143.23 335.95 145.37 346.04 145.43 356.06 C 145.52 365.56 146.97 374.99 148.87 384.28 C 154.75 424.53 168.89 464.44 194.46 496.51 C 197.36 500.44 201.51 503.09 205.55 505.71 C 200.01 506.78 195.07 503.74 190.04 502.02 L 190.67 501.34 C 191.34 500.57 192.01 499.81 192.68 499.04 C 167.69 467.77 152.94 429.25 146.75 389.95 C 143.69 377.53 143.73 364.68 142.72 352.01 C 142.44 344.01 142.47 336.01 142.43 328.00 C 142.36 321.99 143.59 316.06 143.62 310.05 C 143.78 301.13 145.73 292.39 146.59 283.53 C 148.48 272.76 150.48 262.01 153.04 251.38 C 157.58 230.49 164.88 210.33 172.42 190.37 C 176.92 180.33 180.98 170.08 186.26 160.40 C 189.38 154.68 192.02 148.71 195.18 143.01 C 203.10 129.54 211.21 116.14 220.55 103.59 C 226.66 94.60 233.48 86.05 241.09 78.28 Z" />
</g>
<g id="#000000f5">
<path fill="#000000" opacity="0.96" d=" M 445.83 87.23 C 446.41 87.41 447.58 87.79 448.16 87.97 C 448.62 89.91 448.90 91.89 449.22 93.86 C 449.38 96.01 449.45 98.18 449.56 100.34 C 450.90 100.45 452.25 100.57 453.61 100.69 C 451.26 112.24 447.14 123.61 440.22 133.23 C 437.88 136.56 434.61 139.04 431.21 141.19 C 434.65 136.24 439.28 131.98 441.31 126.15 C 444.00 118.59 448.15 111.23 448.18 103.00 C 448.19 97.67 447.42 92.32 445.83 87.23 Z" />
</g>
<g id="#656565e4">
<path fill="#656565" opacity="0.89" d=" M 117.84 126.82 C 120.11 123.17 122.98 119.97 126.02 116.95 C 123.26 121.29 120.40 125.57 117.94 130.09 C 116.03 132.75 114.08 135.38 112.14 138.02 C 110.39 139.99 108.49 141.83 106.70 143.77 C 109.33 137.45 114.30 132.60 117.84 126.82 Z" />
</g>
<g id="#b5b6b7ff">
<path fill="#b5b6b7" opacity="1.00" d=" M 106.70 143.77 C 108.49 141.83 110.39 139.99 112.14 138.02 C 110.38 141.27 108.70 144.57 106.65 147.66 C 95.39 165.02 86.15 183.65 78.57 202.89 C 72.13 220.42 66.77 238.53 64.94 257.18 C 63.00 267.02 63.75 277.05 63.57 287.01 C 63.17 299.39 65.31 311.65 66.13 323.98 C 69.24 340.47 73.63 356.75 79.57 372.45 C 81.89 378.83 84.77 384.99 87.02 391.40 L 86.02 392.36 C 76.42 368.71 67.42 344.50 64.14 319.05 C 59.75 299.97 61.40 280.29 62.56 260.95 C 67.51 222.59 81.68 185.71 101.90 152.84 C 103.39 150.28 104.69 147.63 105.98 144.98 C 106.16 144.68 106.52 144.07 106.70 143.77 Z" />
</g>
<g id="#494a4af3">
<path fill="#494a4a" opacity="0.95" d=" M 94.50 162.49 C 98.19 156.56 101.05 150.03 105.98 144.98 C 104.69 147.63 103.39 150.28 101.90 152.84 C 81.68 185.71 67.51 222.59 62.56 260.95 C 61.40 280.29 59.75 299.97 64.14 319.05 C 67.42 344.50 76.42 368.71 86.02 392.36 C 78.94 382.77 76.67 370.76 72.41 359.84 C 69.36 352.33 68.03 344.32 65.79 336.57 C 64.42 331.17 64.40 325.53 62.90 320.16 C 59.71 309.08 59.22 297.45 59.10 285.99 C 58.90 278.90 61.35 272.08 61.27 264.99 C 61.33 250.38 66.57 236.48 68.46 222.10 C 70.13 216.91 71.49 211.62 73.52 206.55 C 74.74 204.22 75.76 201.80 76.63 199.33 C 82.63 187.07 87.29 174.13 94.50 162.49 Z" />
</g>
<g id="#0d0d0db0">
<path fill="#0d0d0d" opacity="0.69" d=" M 73.52 206.55 C 74.38 204.07 75.41 201.65 76.63 199.33 C 75.76 201.80 74.74 204.22 73.52 206.55 Z" />
</g>
<g id="#eceeefff">
<path fill="#eceeef" opacity="1.00" d=" M 64.94 257.18 C 66.77 238.53 72.13 220.42 78.57 202.89 C 78.96 203.91 79.38 204.92 79.84 205.92 C 82.98 206.93 86.07 208.22 88.63 210.35 C 97.19 217.41 105.72 224.57 113.20 232.80 C 121.47 242.25 129.51 251.91 136.92 262.06 C 139.67 265.86 141.55 270.73 146.25 272.57 C 144.81 280.66 143.54 288.80 142.62 296.97 C 142.51 304.69 140.38 312.23 140.48 319.97 C 140.74 336.44 139.72 352.98 141.91 369.37 C 143.09 379.57 143.52 389.91 146.25 399.86 C 150.34 422.45 157.96 444.33 168.22 464.85 C 174.34 475.95 181.07 486.73 188.64 496.90 C 186.40 496.52 184.17 496.00 182.13 494.99 C 158.39 483.55 138.06 465.74 122.03 444.95 C 114.56 434.97 107.54 424.66 100.61 414.30 C 97.52 409.37 94.51 404.38 90.92 399.78 C 89.57 397.01 88.18 394.26 87.02 391.40 C 84.77 384.99 81.89 378.83 79.57 372.45 C 73.63 356.75 69.24 340.47 66.13 323.98 C 65.31 311.65 63.17 299.39 63.57 287.01 C 63.75 277.05 63.00 267.02 64.94 257.18 Z" />
</g>
<g id="#5f6060ff">
<path fill="#5f6060" opacity="1.00" d=" M 86.02 392.36 L 87.02 391.40 C 88.18 394.26 89.57 397.01 90.92 399.78 C 97.39 417.28 110.96 430.71 120.92 446.16 C 118.56 445.18 116.09 444.44 113.84 443.23 C 113.77 441.80 113.99 440.38 114.15 438.97 C 111.84 437.69 109.19 436.56 107.86 434.13 C 103.39 426.02 98.49 418.16 94.19 409.94 C 91.27 404.20 86.94 398.90 86.02 392.36 Z" />
</g>
<g id="#00000045">
<path fill="#000000" opacity="0.27" d=" M 116.73 449.16 C 119.40 451.24 121.90 453.52 124.17 456.03 C 120.34 455.78 117.59 452.74 116.73 449.16 Z" />
</g>
</svg>
