<?xml version="1.0" encoding="utf-8"?>
<!-- Generator: Adobe Illustrator 25.0.0, SVG Export Plug-In . SVG Version: 6.00 Build 0)  -->
<svg version="1.1" id="1" xmlns="http://www.w3.org/2000/svg" xmlns:xlink="http://www.w3.org/1999/xlink" x="0px" y="0px"
	 viewBox="0 0 200 200" style="enable-background:new 0 0 200 200;" xml:space="preserve">
<style type="text/css">
	.st0{fill:url(#SVGID_1_);}
</style>
<linearGradient id="SVGID_1_" gradientUnits="userSpaceOnUse" x1="2.856065e-05" y1="100" x2="200.0001" y2="100">
	<stop  offset="0" style="stop-color:#F5BAD3"/>
	<stop  offset="1" style="stop-color:#B7DCBC"/>
</linearGradient>
<path class="st0" d="M100,0C89,0,80,9,80,20v70c0,11,9,20,20,20s20-8.9,20-20V43.4c24,8.5,40,31.2,40,56.6c0,33.1-26.8,60-60,60
	s-60-26.8-60-60c0-15.9,6.3-31.2,17.6-42.5c7.8-7.8,7.8-20.5,0-28.3s-20.5-7.8-28.3,0C10.5,48,0,73.5,0,100c0,55.2,44.8,100,100,100
	s100-44.8,100-100S155.2,0,100,0"/>
</svg>
